<?xml version="1.0" encoding="UTF-8" standalone="no"?>
<!-- Created with Inkscape (http://www.inkscape.org/) -->

<svg
   xmlns:dc="http://purl.org/dc/elements/1.1/"
   xmlns:cc="http://creativecommons.org/ns#"
   xmlns:rdf="http://www.w3.org/1999/02/22-rdf-syntax-ns#"
   xmlns:svg="http://www.w3.org/2000/svg"
   xmlns="http://www.w3.org/2000/svg"
   xmlns:sodipodi="http://sodipodi.sourceforge.net/DTD/sodipodi-0.dtd"
   xmlns:inkscape="http://www.inkscape.org/namespaces/inkscape"
   width="348mm"
   height="348mm"
   viewBox="0 0 348 348"
   version="1.1"
   id="svg8"
   inkscape:version="0.92.4 (5da689c313, 2019-01-14)"
   sodipodi:docname="Settler of KTaNE.svg">
  <defs
     id="defs2" />
  <sodipodi:namedview
     id="base"
     pagecolor="#ffffff"
     bordercolor="#666666"
     borderopacity="1.0"
     inkscape:pageopacity="0.0"
     inkscape:pageshadow="2"
     inkscape:zoom="0.42521067"
     inkscape:cx="386.60722"
     inkscape:cy="793.3121"
     inkscape:document-units="mm"
     inkscape:current-layer="layer1"
     showgrid="false"
     inkscape:snap-global="true"
     inkscape:window-width="1920"
     inkscape:window-height="1017"
     inkscape:window-x="1912"
     inkscape:window-y="-8"
     inkscape:window-maximized="1" />
  <metadata
     id="metadata5">
    <rdf:RDF>
      <cc:Work
         rdf:about="">
        <dc:format>image/svg+xml</dc:format>
        <dc:type
           rdf:resource="http://purl.org/dc/dcmitype/StillImage" />
        <dc:title></dc:title>
      </cc:Work>
    </rdf:RDF>
  </metadata>
  <g
     inkscape:label="Ebene 1"
     inkscape:groupmode="layer"
     id="layer1"
     transform="translate(0,51)">
    <g
       style="fill:none"
       id="g47"
       transform="matrix(1.0166315,0,0,1.0102062,-2.3063484,-53.753329)">
      <path
         id="path33"
         d="m 5.079,5.776 h 336.913 v 337.67 H 5.08 Z"
         inkscape:connector-curvature="0"
         style="stroke:#000000;stroke-width:2" />
      <path
         id="path35"
         d="m 282.734,40.554 c 0,-8.376 6.966,-15.165 15.56,-15.165 4.126,0 8.084,1.597 11.001,4.441 2.918,2.844 4.558,6.702 4.558,10.724 0,8.376 -6.966,15.165 -15.56,15.165 -8.593,0 -15.559,-6.79 -15.559,-15.165 z"
         inkscape:connector-curvature="0"
         style="stroke:#000000;stroke-width:2" />
    </g>
    <rect
       style="fill:#ffffff;stroke:#020000;stroke-width:1.01341379;stroke-opacity:1"
       id="rect49"
       width="63.17638"
       height="62.777103"
       x="28.882221"
       y="-29.612722" />
    <rect
       style="fill:#ffffff;stroke:#020000;stroke-width:1.01341379;stroke-opacity:1"
       id="rect51"
       width="44.296089"
       height="43.294556"
       x="239.47021"
       y="38.215385" />
    <rect
       style="fill:#ffffff;stroke:#020000;stroke-width:1.01341379;stroke-opacity:1"
       id="rect51-4"
       width="44.296089"
       height="43.294556"
       x="289.93863"
       y="38.215408" />
    <rect
       style="fill:#ffffff;stroke:#020000;stroke-width:1.01341379;stroke-opacity:1"
       id="rect51-40"
       width="44.296089"
       height="43.294556"
       x="240.01486"
       y="92.333588" />
    <rect
       style="fill:#ffffff;stroke:#020000;stroke-width:1.01341379;stroke-opacity:1"
       id="rect51-4-9"
       width="44.296089"
       height="43.294556"
       x="290.48331"
       y="92.333664" />
    <rect
       style="fill:#ffffff;stroke:#020000;stroke-width:1.01341379;stroke-opacity:1"
       id="rect51-9"
       width="44.296089"
       height="43.294556"
       x="240.31833"
       y="141.40076" />
    <rect
       style="fill:#ffffff;stroke:#020000;stroke-width:1.01341379;stroke-opacity:1"
       id="rect51-4-93"
       width="44.296089"
       height="43.294556"
       x="290.78677"
       y="141.40076" />
    <rect
       style="fill:#ffffff;stroke:#020000;stroke-width:1.01341379;stroke-opacity:1"
       id="rect51-6"
       width="44.296089"
       height="43.294556"
       x="240.01477"
       y="191.91103" />
    <rect
       style="fill:#ffffff;stroke:#020000;stroke-width:1.01341379;stroke-opacity:1"
       id="rect51-4-6"
       width="44.296089"
       height="43.294556"
       x="290.48322"
       y="191.91107" />
    <rect
       style="fill:#ffffff;stroke:#020000;stroke-width:1.01341379;stroke-opacity:1"
       id="rect51-3"
       width="44.296089"
       height="43.294556"
       x="240.74094"
       y="243.14296" />
    <rect
       style="fill:#ffffff;stroke:#020000;stroke-width:1.01341379;stroke-opacity:1"
       id="rect51-4-1"
       width="44.296089"
       height="43.294556"
       x="291.20941"
       y="243.14296" />
    <path
       sodipodi:type="star"
       style="fill:#ffffff;stroke:#020000;stroke-width:0.59066105;stroke-opacity:1"
       id="path237"
       sodipodi:sides="6"
       sodipodi:cx="96.165466"
       sodipodi:cy="131.40765"
       sodipodi:r1="23.62644"
       sodipodi:r2="20.461098"
       sodipodi:arg1="1.5707963"
       sodipodi:arg2="2.0943951"
       inkscape:flatsided="true"
       inkscape:rounded="0"
       inkscape:randomized="0"
       d="m 96.165467,155.03409 -20.461098,-11.81322 0,-23.62644 20.461097,-11.81322 20.461094,11.81322 0,23.62644 z"
       inkscape:transform-center-x="-2.9770505e-05"
       inkscape:transform-center-y="1.3176649e-05"
       transform="matrix(1.7211758,0,0,1.7102978,-8.8303316,-128.08312)" />
    <path
       sodipodi:type="star"
       style="fill:#ffffff;stroke:#020000;stroke-width:0.59066105;stroke-opacity:1"
       id="path237-7"
       sodipodi:sides="6"
       sodipodi:cx="55.241085"
       sodipodi:cy="130.98573"
       sodipodi:r1="23.62644"
       sodipodi:r2="20.461098"
       sodipodi:arg1="1.5707963"
       sodipodi:arg2="2.0943951"
       inkscape:flatsided="true"
       inkscape:rounded="0"
       inkscape:randomized="0"
       d="m 55.241086,154.61217 -20.461098,-11.81322 -1e-6,-23.62644 20.461097,-11.81322 20.461098,11.81322 1e-6,23.62644 z"
       inkscape:transform-center-x="1.0427339e-05"
       transform="matrix(1.7211758,0,0,1.7102978,-8.8303316,-128.08312)"
       inkscape:transform-center-y="8.9515931e-06" />
    <path
       sodipodi:type="star"
       style="fill:#ffffff;stroke:#020000;stroke-width:0.59066105;stroke-opacity:1"
       id="path237-4"
       sodipodi:sides="6"
       sodipodi:cx="34.567936"
       sodipodi:cy="166.42538"
       sodipodi:r1="23.62644"
       sodipodi:r2="20.461098"
       sodipodi:arg1="1.5707963"
       sodipodi:arg2="2.0943951"
       inkscape:flatsided="true"
       inkscape:rounded="0"
       inkscape:randomized="0"
       d="m 34.567937,190.05182 -20.461098,-11.81321 -1e-6,-23.62644 20.461097,-11.81323 20.461098,11.81322 1e-6,23.62644 z"
       inkscape:transform-center-x="9.0049318e-06"
       inkscape:transform-center-y="1.4471362e-06"
       transform="matrix(1.7211758,0,0,1.7102978,-8.8303316,-128.08312)" />
    <path
       sodipodi:type="star"
       style="fill:#ffffff;stroke:#020000;stroke-width:0.59066105;stroke-opacity:1"
       id="path237-8"
       sodipodi:sides="6"
       sodipodi:cx="75.914215"
       sodipodi:cy="166.42538"
       sodipodi:r1="23.62644"
       sodipodi:r2="20.461098"
       sodipodi:arg1="1.5707963"
       sodipodi:arg2="2.0943951"
       inkscape:flatsided="true"
       inkscape:rounded="0"
       inkscape:randomized="0"
       d="m 75.914216,190.05182 -20.461098,-11.81321 -1e-6,-23.62644 20.461097,-11.81323 20.461098,11.81322 1e-6,23.62644 z"
       inkscape:transform-center-x="1.0833209e-05"
       inkscape:transform-center-y="1.4471362e-06"
       transform="matrix(1.7211758,0,0,1.7102978,-8.8303316,-128.08312)" />
    <path
       sodipodi:type="star"
       style="fill:#ffffff;stroke:#020000;stroke-width:0.59066105;stroke-opacity:1"
       id="path237-9"
       sodipodi:sides="6"
       sodipodi:cx="117.26048"
       sodipodi:cy="166.84731"
       sodipodi:r1="23.62644"
       sodipodi:r2="20.461098"
       sodipodi:arg1="1.5707963"
       sodipodi:arg2="2.0943951"
       inkscape:flatsided="true"
       inkscape:rounded="0"
       inkscape:randomized="0"
       d="m 117.26048,190.47375 -20.461094,-11.81322 -10e-7,-23.62644 20.461095,-11.81322 20.4611,11.81321 0,23.62644 z"
       inkscape:transform-center-x="8.9309619e-06"
       transform="matrix(1.7211758,0,0,1.7102978,-8.8303316,-128.08312)"
       inkscape:transform-center-y="7.8153346e-06" />
    <path
       sodipodi:type="star"
       style="fill:#ffffff;stroke:#020000;stroke-width:0.59066105;stroke-opacity:1"
       id="path237-2"
       sodipodi:sides="6"
       sodipodi:cx="55.662968"
       sodipodi:cy="201.86507"
       sodipodi:r1="23.62644"
       sodipodi:r2="20.461098"
       sodipodi:arg1="1.5707963"
       sodipodi:arg2="2.0943951"
       inkscape:flatsided="true"
       inkscape:rounded="0"
       inkscape:randomized="0"
       d="m 55.662968,225.49151 -20.461097,-11.81322 -10e-7,-23.62644 20.461097,-11.81322 20.461098,11.81322 0,23.62644 z"
       inkscape:transform-center-x="1.0916197e-05"
       inkscape:transform-center-y="7.9898695e-06"
       transform="matrix(1.7211758,0,0,1.7102978,-8.8303316,-128.08312)" />
    <path
       sodipodi:type="star"
       style="fill:#ffffff;stroke:#020000;stroke-width:0.59066105;stroke-opacity:1"
       id="path237-0"
       sodipodi:sides="6"
       sodipodi:cx="97.009232"
       sodipodi:cy="201.86507"
       sodipodi:r1="23.62644"
       sodipodi:r2="20.461098"
       sodipodi:arg1="1.5707963"
       sodipodi:arg2="2.0943951"
       inkscape:flatsided="true"
       inkscape:rounded="0"
       inkscape:randomized="0"
       d="m 97.009232,225.49151 -20.461097,-11.81322 -10e-7,-23.62644 20.461097,-11.81322 20.461099,11.81322 0,23.62644 z"
       inkscape:transform-center-y="7.9898695e-06"
       transform="matrix(1.7211758,0,0,1.7102978,-8.8303316,-128.08312)"
       inkscape:transform-center-x="2.9167518e-06" />
    <rect
       style="fill:#ffffff;stroke:#020000;stroke-width:1.01341379;stroke-opacity:1"
       id="rect284"
       width="45.022251"
       height="44.016136"
       x="129.81918"
       y="-20.232258"
       ry="8.9091692" />
    <rect
       style="fill:#ffffff;stroke:#020000;stroke-width:1.01341379;stroke-opacity:1"
       id="rect284-7"
       width="45.022251"
       height="44.016136"
       x="187.27441"
       y="-19.65674"
       ry="8.9091692" />
    <rect
       style="fill:#ffffff;stroke:#020000;stroke-width:1.01341379;stroke-opacity:1"
       id="rect301"
       width="15.638179"
       height="25.618914"
       x="7.592412"
       y="262.8703"
       ry="0" />
    <rect
       style="fill:#ffffff;stroke:#020000;stroke-width:1.01341379;stroke-opacity:1"
       id="rect301-8"
       width="15.638179"
       height="25.618914"
       x="28.091101"
       y="263.50031"
       ry="0" />
    <rect
       style="fill:#ffffff;stroke:#020000;stroke-width:1.01341379;stroke-opacity:1"
       id="rect301-0"
       width="15.638179"
       height="25.618914"
       x="49.223759"
       y="263.08032"
       ry="0" />
    <rect
       style="fill:#ffffff;stroke:#020000;stroke-width:1.01341379;stroke-opacity:1"
       id="rect301-1"
       width="15.638179"
       height="25.618914"
       x="69.511147"
       y="263.92026"
       ry="0" />
    <rect
       style="fill:#ffffff;stroke:#020000;stroke-width:1.01341379;stroke-opacity:1"
       id="rect330"
       width="13.947564"
       height="20.159147"
       x="98.040283"
       y="266.23016" />
    <rect
       style="fill:#ffffff;stroke:#020000;stroke-width:1.01341379;stroke-opacity:1"
       id="rect330-5"
       width="13.947564"
       height="20.159147"
       x="118.11628"
       y="266.65018" />
    <rect
       style="fill:#ffffff;stroke:#020000;stroke-width:1.01341379;stroke-opacity:1"
       id="rect330-54"
       width="13.947564"
       height="20.159147"
       x="138.82628"
       y="265.81021" />
    <rect
       style="fill:#ffffff;stroke:#020000;stroke-width:1.01341379;stroke-opacity:1"
       id="rect330-58"
       width="13.947564"
       height="20.159147"
       x="159.11368"
       y="266.23016" />
    <rect
       style="fill:#ffffff;stroke:#020000;stroke-width:1.01341379;stroke-opacity:1"
       id="rect330-0"
       width="13.947564"
       height="20.159147"
       x="180.24635"
       y="267.07013" />
    <path
       id="path35-9"
       d="m 204.86827,1.8513874 c 0,-2.04027272 1.74926,-3.6939723 3.90728,-3.6939723 1.03612,0 2.03003,0.3890031 2.76249,1.08175986 0.73279,0.69275671 1.14458,1.63250799 1.14458,2.61221244 0,2.0402683 -1.74921,3.6939723 -3.90727,3.6939723 -2.15782,0 -3.90708,-1.6539441 -3.90708,-3.6939723 z"
       inkscape:connector-curvature="0"
       style="fill:none;stroke:#000000;stroke-width:0.4946408" />
    <path
       id="path35-9-8"
       d="m 149.07801,1.2214132 c 0,-2.04027262 1.74925,-3.6939751 3.90731,-3.6939751 1.03609,0 2.03,0.389006 2.76247,1.0817613 0.73278,0.69275655 1.14457,1.63250934 1.14457,2.6122138 0,2.0402669 -1.7492,3.6939709 -3.9073,3.6939709 -2.1578,0 -3.90705,-1.6539441 -3.90705,-3.6939709 z"
       inkscape:connector-curvature="0"
       style="fill:none;stroke:#000000;stroke-width:0.4946408" />
    <path
       id="path35-9-88"
       d="m 160.06706,-10.53809 c 0,-2.040271 1.74924,-3.693974 3.90727,-3.693974 1.03608,0 2.02999,0.389007 2.76247,1.081763 0.73279,0.692757 1.14457,1.632511 1.14457,2.612211 0,2.0402689 -1.74919,3.693974 -3.90727,3.693974 -2.1578,0 -3.90704,-1.6539441 -3.90704,-3.693974 z"
       inkscape:connector-curvature="0"
       style="fill:none;stroke:#000000;stroke-width:0.4946408" />
    <path
       id="path35-9-0"
       d="m 136.82107,13.820879 c 0,-2.040273 1.74923,-3.693973 3.90728,-3.693973 1.03608,0 2.03,0.389003 2.76248,1.081761 0.73278,0.692757 1.14456,1.63251 1.14456,2.612212 0,2.040266 -1.7492,3.693973 -3.90726,3.693973 -2.15783,0 -3.90706,-1.653946 -3.90706,-3.693973 z"
       inkscape:connector-curvature="0"
       style="fill:none;stroke:#000000;stroke-width:0.4946408" />
  </g>
</svg>
